<?xml version="1.0" encoding="utf-8"?><svg xmlns="http://www.w3.org/2000/svg" viewBox="0 0 18 18"><path fill="#777" d="M13 14H4.9h-.1c-.5-.1-.8-.4-.9-.9V13c.1-2.7.1-5.3.1-8v-.1c.1-.5.4-.8.9-.9H13.2c.5.1.8.4.9.9V13.2c-.2.4-.5.7-1.1.8.1 0 .1 0 0 0zm-1-5.8c.2 1 .1 1.8-.5 2.6S10.1 12 9.2 12c-.8 0-1.5-.2-2.1-.8-.9-.8-1.2-1.9-1-3.1h-.9V12.3c0 .3.2.4.4.4h6.8c.3 0 .4-.2.4-.4V8.1c-.2.1-.5.1-.8.1zm-1.1.8c0-1.1-.9-1.9-1.9-1.9-1.1 0-1.9.8-1.9 1.9S8 10.9 9 10.9c1.1 0 1.9-.8 1.9-1.9zm1-1.9h.5c.2 0 .4-.2.4-.4V5.6c0-.2-.2-.4-.4-.4h-1.1c-.2 0-.4.2-.4.4v1.1c0 .2.2.4.4.4h.6z"/></svg>